<svg width="16" height="16" viewBox="0 0 16 16" fill="none" xmlns="http://www.w3.org/2000/svg">
<path d="M15.83 8.18C15.83 7.65333 15.7834 7.15333 15.7034 6.66666H8.17004V9.67333H12.4834C12.29 10.66 11.7234 11.4933 10.8834 12.06V14.06H13.4567C14.9634 12.6667 15.83 10.6133 15.83 8.18Z" fill="#4285F4"/>
<path d="M8.17003 16C10.33 16 12.1367 15.28 13.4567 14.06L10.8834 12.06C10.1634 12.54 9.25003 12.8333 8.17003 12.8333C6.08336 12.8333 4.3167 11.4267 3.68336 9.52666H1.03003V11.5867C2.34336 14.2 5.04336 16 8.17003 16Z" fill="#34A853"/>
<path d="M3.68338 9.52667C3.51671 9.04667 3.43004 8.53334 3.43004 8C3.43004 7.46667 3.52338 6.95334 3.68338 6.47334V4.41334H1.03004C0.483377 5.49334 0.170044 6.70667 0.170044 8C0.170044 9.29334 0.483377 10.5067 1.03004 11.5867L3.68338 9.52667Z" fill="#FBBC05"/>
<path d="M8.17003 3.16667C9.35003 3.16667 10.4034 3.57334 11.2367 4.36667L13.5167 2.08667C12.1367 0.793334 10.33 0 8.17003 0C5.04336 0 2.34336 1.8 1.03003 4.41334L3.68336 6.47334C4.3167 4.57334 6.08336 3.16667 8.17003 3.16667Z" fill="#EA4335"/>
</svg>